<?xml version="1.0" standalone="no"?>
<!DOCTYPE svg PUBLIC "-//W3C//DTD SVG 20010904//EN"
 "http://www.w3.org/TR/2001/REC-SVG-20010904/DTD/svg10.dtd">
<svg version="1.0" xmlns="http://www.w3.org/2000/svg"
 width="260.000000pt" height="260.000000pt" viewBox="0 0 260.000000 260.000000"
 preserveAspectRatio="xMidYMid meet">
<metadata>
Created by potrace 1.11, written by Peter Selinger 2001-2013
</metadata>
<g transform="translate(0.000000,260.000000) scale(0.100000,-0.100000)"
fill="#000000" stroke="none">
<path d="M305 2586 c-117 -37 -216 -123 -268 -233 l-32 -68 0 -985 0 -985 32
-68 c67 -141 204 -237 352 -245 79 -4 1741 119 1845 137 122 21 241 99 304
199 65 103 63 63 60 983 l-3 834 -32 66 c-59 120 -191 216 -329 240 -78 13
-1738 139 -1823 138 -36 0 -84 -6 -106 -13z m1234 -531 c424 -6 443 -9 477
-59 21 -33 14 -94 -17 -161 -37 -78 -30 -77 -450 -74 -203 1 -371 1 -373 -2
-4 -4 -66 -287 -66 -302 0 -4 122 -7 270 -7 280 0 316 -5 349 -44 20 -24 15
-102 -11 -155 -39 -79 -48 -81 -380 -81 -264 0 -287 -1 -292 -17 -9 -29 -66
-305 -66 -318 0 -10 89 -12 381 -11 l381 1 25 -29 c23 -27 25 -36 20 -86 -2
-31 -14 -75 -26 -98 -38 -74 -26 -73 -556 -84 -460 -10 -473 -10 -517 10 -51
22 -78 67 -78 129 0 38 239 1195 261 1263 32 97 117 145 239 134 19 -2 212 -6
429 -9z"/>
</g>
</svg>
