<svg class="fox-head" xmlns="http://www.w3.org/2000/svg" preserveAspectRatio="xMinYMin" viewBox="0 0 54.2 73.05"><path d="M53,0.2a2,2,0,0,0-2.2.5L27.1,24.4,3.4,0.7A1.6,1.6,0,0,0,1.2.2,1.84,1.84,0,0,0,0,1.9v35c0,7.7,1.9,12.2,7.7,17.7L25.4,72.3a2.51,2.51,0,0,0,1.7.7,2.19,2.19,0,0,0,1.7-.7L46.5,54.6c5.8-5.8,7.7-10.3,7.7-17.7V1.9A1.74,1.74,0,0,0,53,.2ZM49.9,37.1c0,6.5-1.4,9.8-6.5,14.9l-11,11-1.2-1.2h0l-1.4-1.4a3.7,3.7,0,0,0-2.6-1,3.19,3.19,0,0,0-2.6,1l-1.4,1.4h0L22,63,11,52c-4.8-4.8-6.5-8.4-6.5-14.9V17.7l6.7-3.4L26.1,29.2a2.92,2.92,0,0,0,1.4.5,2.39,2.39,0,0,0,1.4-.5L43.3,14.3,50,17.7,49.9,37.1h0Zm-36.7.7L4.3,35.9A105.23,105.23,0,0,0,18.9,48.6V43.3C18.9,40,18.5,39,13.2,37.8Zm22,5.5v5.3A105.23,105.23,0,0,0,49.8,35.9l-9.1,1.9C35.7,39,35.2,40,35.2,43.3Z"/></svg>
