<svg xmlns="http://www.w3.org/2000/svg" viewBox="0 0 16 16"><path d="M14 0H2C.895 0 0 .895 0 2v12c0 1.105.895 2 2 2h12c1.105 0 2-.895 2-2V2c0-1.105-.895-2-2-2zm-3.013 2.428c0-.238.193-.43.43-.43h2.156c.238 0 .43.192.43.43v2.155c0 .238-.192.43-.43.43h-2.155c-.238 0-.43-.192-.43-.43V2.428zM8 5.013c1.65 0 2.987 1.337 2.987 2.987 0 1.65-1.337 2.987-2.987 2.987S5.013 9.65 5.013 8C5.013 6.35 6.35 5.013 8 5.013zm6.004 8.462c0 .292-.224.53-.5.53H2.496c-.276 0-.5-.238-.5-.53V7.012h1.09c-.065.32-.1.65-.1.988 0 2.77 2.244 5.014 5.013 5.014S13.013 10.77 13.013 8c0-.338-.036-.668-.1-.988h1.09v6.463z" fill-rule="evenodd" clip-rule="evenodd"/></svg>