<svg id="c4d6d1d2-b9fd-4b10-b3ea-d187bcca0005" data-name="731bbf61-39e4-4c1f-a625-16dbd848de3d" xmlns="http://www.w3.org/2000/svg" viewBox="0 0 16 16"><title>pinned</title><path d="MNaN,NaNLNaN,NaN,NaN,NaN,NaN,NaN,NaN,NaNZ"/><path d="M5.23,7.37v-4A0.48,0.48,0,0,1,5.68,3H6.57A0.41,0.41,0,0,1,7,3.38V7L8.7,3.38A0.45,0.45,0,0,1,9.14,3h1.07c0.36,0,.36.27,0.18,0.53L8.48,7.37H16V2a2,2,0,0,0-2-2H2A2,2,0,0,0,0,2V7.37H5.23Z"/><path d="M8.46,7.88l2.28,4.56a0.39,0.39,0,0,1-.22.51l-0.13,0H9.5A0.6,0.6,0,0,1,9,12.62L7,8.53v4a0.41,0.41,0,0,1-.44.36H5.68a0.48,0.48,0,0,1-.44-0.36V7.88H0V14a2,2,0,0,0,2,2H14a2,2,0,0,0,2-2V7.88H8.46Z"/></svg>