<?xml version="1.0" encoding="utf-8"?>
<!-- Generator: Adobe Illustrator 19.1.0, SVG Export Plug-In . SVG Version: 6.00 Build 0)  -->
<!DOCTYPE svg PUBLIC "-//W3C//DTD SVG 1.1//EN" "http://www.w3.org/Graphics/SVG/1.1/DTD/svg11.dtd">
<svg version="1.1" id="Layer_2" xmlns="http://www.w3.org/2000/svg" xmlns:xlink="http://www.w3.org/1999/xlink" x="0px" y="0px"
	 viewBox="-168.4 161.7 166.8 164.6" enable-background="new -168.4 161.7 166.8 164.6" xml:space="preserve">
<g>
	<path d="M-9,200.5l-3.8-1.3c-7.5,33.8-15.3,67.5-22.1,102.1c-6.9-0.3-13.8-0.7-21-0.8c0.5-3.3,0.5-7,1.1-10.1
		c-1,0.2-1.6,1.1-2.2,1.6c-4.4,4.3-10.3,9.6-20.2,9.1c-25.4-1.5-21.5-37.8-14.8-57.6c5.6-16.5,17.1-33.4,33.1-34.9
		c8.9-0.8,15,2.8,16.9,9.6c2.2-8.7,4.1-17.8,6-26.8l-82-27.8c-4.6-1.6-9.6,0.9-11.2,5.4l-37.3,107.5c-1.1,3.3-0.2,6.7,2.1,9
		c2.9-5.7,6.9-10.3,10-15.9c4.7,3.3,11.4,9.2,20.2,7.7c4.5-0.7,9.3-6.4,7-12c-1.9-4.7-6.7-7.5-10.2-11.7c-3.2-3.8-6.1-9.3-6.2-15.5
		c0-7.6,4.2-14.8,8.4-19.4c4.7-5.1,9.6-7.9,17.5-10.1c0.7-4.1,1.9-7.5,2.7-11.5c5.7,1.2,11,2.8,16.7,4c-0.4,2.6-1.1,4.8-1.6,7.2
		c5.4,1.8,10.6,3.9,14.5,7.2c-3.3,5.6-7.2,10.6-10.5,16.2c-3.4-2.8-8.7-6.7-15.1-6.1c-4.5,0.4-9,3.9-8.3,9.3
		c0.5,4.4,7.6,9.6,10.2,12.8c3.3,4,6.7,8.7,6.7,16c0.1,8.1-4,15.6-8.1,20.2c-5.3,6.1-12.1,9.6-22.1,10.9c-0.2,0.7-0.4,1.4-0.6,2.1
		l81,27.5c4.6,1.6,9.6-0.9,11.2-5.4l37.4-107.5C-2,207-4.4,202-9,200.5z"/>
	<path d="M-54,229.4c-1.6,0.1-3,0.5-4,1.1c-5.1,2.8-8,9.6-10.5,17.3c-2.6,7.9-4.6,15.4-3.8,24.3c0.5,4.9,2.2,8.1,5.6,9.3
		c5.8,2.1,11-4.7,12.9-9.3c1.5-3.8,6.5-27.9,6.7-30.6C-46.3,233.6-48.8,229-54,229.4z"/>
</g>
</svg>
