<?xml version="1.0" encoding="utf-8"?>
<!-- Generator: Adobe Illustrator 16.0.0, SVG Export Plug-In . SVG Version: 6.00 Build 0)  -->
<!DOCTYPE svg PUBLIC "-//W3C//DTD SVG 1.1//EN" "http://www.w3.org/Graphics/SVG/1.1/DTD/svg11.dtd">
<svg version="1.1" id="Layer_1" xmlns="http://www.w3.org/2000/svg" xmlns:xlink="http://www.w3.org/1999/xlink" x="0px" y="0px"
	 width="800px" height="800px" viewBox="211 -0.5 800 800" enable-background="new 211 -0.5 800 800" xml:space="preserve">
<g>
	<g>
		<path d="M442.134,433.562c0,18.396-14.975,33.309-33.309,33.309c-18.417,0-33.319-14.912-33.319-33.309
			c0-18.396,14.903-33.257,33.319-33.257C427.159,400.306,442.134,415.167,442.134,433.562"/>
		<path d="M843.506,433.562c0,18.396-14.913,33.309-33.257,33.309c-18.511,0-33.278-14.912-33.278-33.309
			c0-18.396,14.768-33.257,33.278-33.257C828.593,400.306,843.506,415.167,843.506,433.562"/>
		<path d="M866.072,586.15c-40.1,14.726-83.527,13.042-122.399-4.866c-38.789-17.865-68.22-49.791-82.986-89.767
			c-14.768-40.1-13.083-83.516,4.721-122.264c17.846-38.862,49.751-68.376,89.892-83.144
			c82.695-30.521,174.874,11.907,205.345,94.613C991.238,463.398,948.726,555.494,866.072,586.15 M411.446,595.198
			c-88.176,0-159.879-71.691-159.879-159.826c0-88.176,71.704-159.889,159.879-159.889c88.145,0,159.847,71.713,159.847,159.889
			C571.293,523.507,499.59,595.198,411.446,595.198 M804.238,236.039c-20.986,0.654-42.2,4.43-62.958,12.167
			c-50.208,18.479-90.203,55.49-112.562,104.127c-10.191,21.86-15.849,45.103-17.742,68.512
			c-7.415-102.382-91.867-183.568-195.517-185.597c57.311-24.532,123.252-37.885,194.654-37.885
			C682.025,197.363,746.938,210.362,804.238,236.039 M971.438,316.779c9.464-40.059,39.352-80.086,39.352-80.086l-133.631-0.104
			c-74.938-48.471-166.035-74.158-267.044-74.158c-104.606,0-199.146,26.342-273.72,75.042l-125.425,0.136
			c0,0,29.597,39.527,39.247,79.356c-24.542,33.227-39.143,74.105-39.143,118.406c0,110.472,89.892,200.343,200.374,200.343
			c63.103,0,119.415-29.431,156.177-75.188l42.563,63.894l43.054-64.393c19.343,24.584,44.197,44.51,73.523,57.965
			c48.626,22.463,103.035,24.605,153.326,6.137c103.66-38.354,156.801-153.931,118.511-257.413
			C991.82,348.341,982.586,331.722,971.438,316.779"/>
		<path d="M408.929,498.485c-35.804,0-64.922-29.16-64.922-64.923c0-35.731,29.118-64.809,64.922-64.809
			c35.712,0,64.757,29.077,64.757,64.809C473.686,469.325,444.641,498.485,408.929,498.485 M408.929,334.707
			c-54.554,0-98.991,44.321-98.991,98.855c0,54.648,44.437,98.97,98.991,98.97c54.472,0,98.814-44.321,98.814-98.97
			C507.743,379.028,463.4,334.707,408.929,334.707"/>
		<path d="M810.249,498.485c-35.773,0-64.892-29.16-64.892-64.923c0-35.731,29.118-64.809,64.892-64.809
			c35.752,0,64.787,29.077,64.787,64.809C875.036,469.325,846.001,498.485,810.249,498.485 M810.249,334.707
			c-54.617,0-98.96,44.321-98.96,98.855c0,54.648,44.343,98.97,98.96,98.97c54.492,0,98.855-44.321,98.855-98.97
			C909.104,379.028,864.741,334.707,810.249,334.707"/>
	</g>
</g>
</svg>
