<?xml version="1.0" encoding="utf-8"?>
<!-- Generator: Adobe Illustrator 17.1.0, SVG Export Plug-In . SVG Version: 6.00 Build 0)  -->
<!DOCTYPE svg PUBLIC "-//W3C//DTD SVG 1.1//EN" "http://www.w3.org/Graphics/SVG/1.1/DTD/svg11.dtd">
<svg version="1.1" id="Layer_1" xmlns="http://www.w3.org/2000/svg" xmlns:xlink="http://www.w3.org/1999/xlink" x="0px" y="0px"
	 viewBox="0 0 64 64" enable-background="new 0 0 64 64" xml:space="preserve">
<path id="v_64" d="M64,17c0,13-24,43-35,43C16,60,16,20,8.034,20C7,20,3.011,23,3.011,23L0,19C0,19,14,5,20,5c12,0,8,35,15,35
	c4,0,18-22,6-22c-2,0-4,1-4,1C40,9,46,4,55,4C61,4,64,9,64,17z"/>
</svg>
